<svg width="39" height="39" viewBox="0 0 39 39" fill="none" xmlns="http://www.w3.org/2000/svg">
<path d="M10.9682 33.1506H9.44473L10.3588 31.8709C11.0291 30.8959 11.5166 29.7381 11.7603 28.2146C7.43379 26.2646 5.11816 22.6084 5.11816 17.7943C5.11816 10.4209 10.6635 5.85059 19.6213 5.85059C28.5791 5.85059 34.1244 10.4209 34.1244 17.7943C34.1244 25.2287 28.701 29.7381 19.6213 29.7381C19.4385 29.7381 19.1947 29.7381 19.0119 29.7381C17.5494 31.3225 15.1119 33.1506 10.9682 33.1506ZM19.4994 7.43496C11.3947 7.43496 6.58066 11.274 6.58066 17.7943C6.58066 23.3397 9.99317 25.8381 12.7963 26.9959L13.3447 27.2397L13.2838 27.849C13.101 29.2506 12.7963 30.4693 12.3088 31.5053C15.2338 31.1397 16.94 29.6772 17.8541 28.4584L18.0979 28.1537H18.6463C18.89 28.1537 19.1947 28.1537 19.4385 28.1537C31.0775 28.1537 32.3572 20.9022 32.3572 17.7943C32.4182 11.335 27.6041 7.43496 19.4994 7.43496Z" fill="#2B2C34"/>
<circle cx="30.5215" cy="8.47807" r="5.08696" fill="#E45858"/>
</svg>
