<svg width="152" height="128" viewBox="0 0 152 128" fill="none" xmlns="http://www.w3.org/2000/svg">
<path d="M90.4511 67.2094C90.4518 68.6452 90.3606 70.0797 90.1779 71.5039C89.9549 73.5899 89.5355 75.6502 88.9254 77.6574L88.7912 77.6227C86.5955 84.2903 82.3512 90.0947 76.6631 94.2085C70.975 98.3224 64.1334 100.536 57.1136 100.533H56.8635H56.7061C53.1475 100.537 49.6113 99.9694 46.2326 98.8522L33.1916 107.453C32.6729 107.799 32.0627 107.981 31.4394 107.977C30.8161 107.974 30.2082 107.784 29.6938 107.432C29.1793 107.08 28.7818 106.582 28.5524 106.002C28.323 105.423 28.2721 104.788 28.4063 104.179L31.6636 89.1913C27.4363 84.3764 24.6869 78.4448 23.7446 72.1072C22.8024 65.7696 23.7073 59.2947 26.3511 53.4582C28.9948 47.6218 33.2652 42.6713 38.6506 39.2C44.036 35.7286 50.3081 33.8835 56.7154 33.8857H56.8705H57.1252C61.5015 33.8854 65.835 34.7472 69.8783 36.4217C73.9215 38.0962 77.5954 40.5508 80.69 43.6452C83.7846 46.7396 86.2394 50.4133 87.9143 54.4564C89.5891 58.4996 90.4511 62.8331 90.4511 67.2094Z" fill="white"/>
<path d="M55.6671 33.8857C54.2942 33.8852 52.9227 33.9687 51.5601 34.1358C59.6256 35.1382 67.0471 39.0525 72.4292 45.1427C77.8112 51.2329 80.7831 59.0795 80.786 67.2071C80.786 68.6437 80.694 70.079 80.5105 71.5039C80.2884 73.5893 79.869 75.6489 79.258 77.6551L79.1237 77.6181C77.1471 83.6152 73.5089 88.928 68.6319 92.939C63.755 96.9499 57.8398 99.4942 51.5739 100.276C59.2344 101.225 66.9867 99.4843 73.5063 95.3517C80.0259 91.2191 84.9082 84.9509 87.3192 77.6181L87.4535 77.6551C88.0645 75.6489 88.4839 73.5893 88.7059 71.5039C89.3143 66.8056 88.9142 62.0316 87.5325 57.5001C86.1507 52.9686 83.8191 48.7836 80.6928 45.224C77.5665 41.6644 73.7175 38.8121 69.4023 36.857C65.087 34.9019 60.4046 33.889 55.6671 33.8857Z" fill="#C5C6EF"/>
<path d="M30.7021 109.599C29.9935 109.596 29.2945 109.435 28.6561 109.127C28.0178 108.819 27.4562 108.373 27.0124 107.82C26.5687 107.268 26.2539 106.623 26.0912 105.934C25.9285 105.244 25.9219 104.527 26.0719 103.834L29.1579 89.6355C23.8888 83.3503 21.0005 75.4107 20.9995 67.2091C20.9995 47.9381 36.6774 32.251 55.9576 32.251H56.3674C75.6383 32.251 91.3255 47.9289 91.3255 67.2091C91.3257 68.7084 91.2306 70.2062 91.0407 71.6934C90.8053 73.8751 90.3659 76.0298 89.728 78.1294L89.265 79.6157L89.0659 79.5648C86.5647 86.2123 82.0934 91.9377 76.25 95.9751C70.4067 100.013 63.4699 102.17 56.3674 102.158H56.1173H55.9599C52.4939 102.162 49.0467 101.649 45.7318 100.637L33.3159 108.809C32.5409 109.323 31.632 109.598 30.7021 109.599ZM55.9576 35.5106C38.4624 35.5106 24.2407 49.73 24.2407 67.2091C24.2367 74.9039 27.0348 82.337 32.112 88.1191L32.6538 88.7349L29.2228 104.524C29.1599 104.815 29.1853 105.119 29.2956 105.396C29.406 105.673 29.5963 105.911 29.8423 106.08C30.0883 106.249 30.379 106.34 30.6772 106.343C30.9755 106.346 31.2678 106.26 31.517 106.096L45.2248 97.067L45.9726 97.3147C49.184 98.3764 52.5451 98.9158 55.9275 98.9121C56.0641 98.9121 56.159 98.9121 56.2493 98.9121H56.335C63.0132 98.9237 69.5239 96.8215 74.9343 92.9065C80.3447 88.9916 84.3773 83.4647 86.4545 77.1177L86.9175 75.6731L86.9823 75.6893C87.3423 74.2567 87.6022 72.8009 87.7602 71.3323V71.2975C87.9334 69.9424 88.02 68.5776 88.0195 67.2114C88.0195 49.7323 73.8001 35.513 56.3211 35.513H56.2308C56.166 35.5153 56.0664 35.5153 55.9576 35.5106Z" fill="#2B2C34"/>
<path d="M59.6502 52.8134C59.6403 54.2486 59.7222 55.6831 59.8956 57.1079C60.1108 59.1947 60.5224 61.2566 61.1249 63.2661L61.2592 63.2313C63.4277 69.905 67.6467 75.7243 73.3153 79.8604C78.984 83.9964 85.8132 86.2383 92.8303 86.2666H93.0803H93.2378C96.7965 86.2847 100.335 85.7313 103.718 84.6275L116.734 93.2791C117.251 93.6241 117.86 93.8069 118.481 93.8041C119.103 93.8014 119.71 93.6133 120.224 93.2638C120.739 92.9143 121.137 92.4193 121.368 91.8422C121.6 91.2651 121.654 90.6321 121.524 90.024L118.324 75.0222C122.569 70.2252 125.341 64.3065 126.309 57.9747C127.277 51.6428 126.399 45.1662 123.781 39.3204C121.163 33.4745 116.915 28.5072 111.547 25.0132C106.178 21.5191 99.9163 19.6464 93.511 19.6194H93.3558H93.1012C84.2636 19.5855 75.7745 23.0637 69.5013 29.2887C63.228 35.5137 59.6845 43.9758 59.6502 52.8134Z" fill="#464DEA"/>
<path d="M121.763 91.4205C121.892 92.0283 121.837 92.6607 121.605 93.2371C121.373 93.8135 120.975 94.3079 120.461 94.6571C119.947 95.0063 119.341 95.1945 118.72 95.1978C118.099 95.2011 117.49 95.0193 116.973 94.6755L116.596 94.4255C117.021 94.0627 117.339 93.5906 117.515 93.0601C117.691 92.5296 117.719 91.961 117.596 91.4159L114.396 76.414C118.541 71.7286 121.283 65.9712 122.309 59.8003C123.335 53.6295 122.603 47.2946 120.197 41.5203C117.791 35.746 113.808 30.7656 108.704 27.1489C103.6 23.5322 97.5808 21.4252 91.3354 21.0691C91.9953 21.0297 92.6597 21.0135 93.3311 21.0158H93.5834H93.7385C100.145 21.0407 106.408 22.9117 111.778 26.4049C117.149 29.8981 121.398 34.8653 124.018 40.7116C126.637 46.5579 127.516 53.0354 126.549 59.3683C125.581 65.7012 122.809 71.621 118.563 76.4186L121.763 91.4205Z" fill="#3E43C6"/>
<path d="M94.5605 19.6193C95.9314 19.6253 97.3006 19.7149 98.6605 19.8879C94.3 20.4142 90.0865 21.7967 86.2618 23.956C82.4371 26.1153 79.0766 29.0088 76.3732 32.4704C73.6699 35.9321 71.677 39.8936 70.5089 44.1275C69.3408 48.3615 69.0206 52.7845 69.5666 57.1426C69.7799 59.2295 70.1908 61.2914 70.7936 63.3008L70.9279 63.266C72.8802 69.2699 76.4963 74.5964 81.3559 78.6265C86.2155 82.6566 92.119 85.2249 98.3804 86.0328C90.7169 86.9508 82.9725 85.1796 76.4699 81.0217C69.9673 76.8639 65.11 70.5773 62.7278 63.2359L62.5935 63.2707C61.9907 61.2614 61.5798 59.1994 61.3665 57.1125C60.7758 52.4108 61.1942 47.6372 62.5938 43.11C63.9934 38.5828 66.3421 34.406 69.4832 30.858C72.6243 27.3101 76.4857 24.4725 80.81 22.5346C85.1342 20.5966 89.8219 19.6028 94.5605 19.6193Z" fill="#3E43C6"/>
<path d="M60.6014 54.8296H40.9878V58.0777H60.6014V54.8296Z" fill="#E45858"/>
<path d="M67.443 72.0654H47.8271V75.3135H67.443V72.0654Z" fill="#E45858"/>
<path d="M62.0871 63.1504H30.5854V66.3985H62.0871V63.1504Z" fill="#E45858"/>
<path d="M97.8934 42.7925H78.2798V46.0406H97.8934V42.7925Z" fill="#2B2C34"/>
<path d="M97.8957 60.0278H78.2798V63.2759H97.8957V60.0278Z" fill="#2B2C34"/>
<path d="M109.781 51.1128H78.2798V54.3609H109.781V51.1128Z" fill="#2B2C34"/>
<path d="M119.247 95.4356C118.308 95.4338 117.391 95.1534 116.612 94.63L104.245 86.409C100.926 87.4088 97.4761 87.9082 94.0097 87.8907H93.8708H93.7643C93.7111 87.8907 93.6601 87.8907 93.6023 87.8907C86.5 87.8751 79.5717 85.6913 73.7441 81.6315C67.9165 77.5717 63.4674 71.8294 60.9917 65.1726L60.7926 65.2235L60.355 63.7372C59.7255 61.6353 59.2946 59.479 59.0678 57.2966C58.8841 55.8082 58.7952 54.3096 58.8016 52.8099C58.8687 33.5876 74.5327 18 93.7365 18H94.2875C113.556 18.0764 129.172 33.8168 129.095 53.0854C129.065 61.2855 126.15 69.2134 120.86 75.4794L123.891 89.6919C124.038 90.3843 124.029 91.1008 123.864 91.7892C123.699 92.4775 123.382 93.1204 122.937 93.6709C122.492 94.2215 121.93 94.6658 121.292 94.9715C120.653 95.2772 119.955 95.4365 119.247 95.438V95.4356ZM104.743 82.8438L118.413 91.9306C118.662 92.0954 118.953 92.1826 119.251 92.1811C119.55 92.1796 119.84 92.0895 120.087 91.9222C120.334 91.7549 120.525 91.518 120.637 91.2416C120.749 90.9653 120.776 90.6619 120.714 90.3702L117.344 74.565L117.888 73.9515C122.989 68.1905 125.819 60.769 125.847 53.0738C125.917 35.5948 111.75 21.3175 94.2736 21.2411H93.7389C85.3519 21.2411 77.3068 24.5648 71.3655 30.4844C65.4242 36.404 62.0711 44.4369 62.0404 52.8238C62.0352 54.1905 62.1172 55.5561 62.2858 56.9123V56.947C62.4391 58.4113 62.6936 59.8633 63.0475 61.2925L63.1123 61.2763L63.5753 62.7255C65.6276 69.0807 69.6385 74.6233 75.0335 78.5595C80.4286 82.4957 86.9309 84.6234 93.6092 84.638H93.6926C93.7458 84.638 93.799 84.638 93.8546 84.638H93.9935C97.3853 84.6567 100.758 84.1306 103.983 83.0799L104.743 82.8438Z" fill="#2B2C34"/>
</svg>
