<svg width="125" height="128" viewBox="0 0 125 128" fill="none" xmlns="http://www.w3.org/2000/svg">
<path d="M28.7115 81.4189C28.7115 81.4189 21.4024 31.0313 59.8152 27.8811C59.8152 27.8811 92.5128 24.5382 96.3674 60.7193V102.019C96.3674 102.019 99.2917 112.253 65.9306 109.893L35.7572 109.63C35.7572 109.63 28.666 107.266 28.1553 97.6903L28.7115 81.4189Z" fill="#464DEA"/>
<path d="M18.7461 63.2451H29.1129V96.6067H21.2378C21.2378 96.6067 17.8483 94.8341 18.7461 88.7327C19.6439 82.6314 18.7461 63.2451 18.7461 63.2451Z" fill="#B6B6B6"/>
<path d="M96.4336 63.2451L106.67 63.836L106.27 91.3916C106.27 91.3916 107.331 98.2829 96.4336 96.6099V63.2451Z" fill="#B6B6B6"/>
<path d="M41.4734 34.4432L42.2703 24.209H44.1993L47.1886 29.9185L53.4374 29.0001C53.4374 29.0001 45.7932 13.5155 33.634 19.6843C33.634 19.6843 26.0582 23.0304 27.2552 37.9242L29.4476 50.3228L41.4734 34.4432Z" fill="#464DEA"/>
<path d="M77.3594 30.1766L81.4482 24.6179H82.8437L84.1383 35.2375L94.7068 50.8441L97.4977 29.8811C97.4977 29.8811 96.6 18.5808 82.346 18.2275C82.346 18.2275 75.8663 19.056 72.877 29.3898L76.3673 31.2588L77.3594 30.1766Z" fill="#464DEA"/>
<path d="M40.9201 75.2388H83.9488C83.9488 75.2388 88.4832 82.0916 70.0331 81.4333L40.7607 79.9625L40.9201 75.2388Z" fill="#4549B6"/>
<path d="M41.7433 101.685H84.7719C84.7719 101.685 89.3063 108.538 70.8562 107.88L38.2822 103.75L41.7433 101.685Z" fill="#4549B6"/>
<path d="M18.5919 84.6992C18.5919 84.6992 24.3267 93.9508 28.91 93.7549V97.2006C28.9132 97.2006 15.3521 98.8736 18.5919 84.6992Z" fill="#9E9494"/>
<path d="M106.46 84.6992C106.46 84.6992 100.725 93.9508 96.1416 93.7549V97.2006C96.1416 97.2006 109.703 98.8736 106.46 84.6992Z" fill="#9E9494"/>
<path d="M41.202 70.3979C41.202 70.3979 41.176 70.1667 41.1467 69.7461C40.8312 65.3049 40.1644 39.7274 67.124 42.8423C67.124 42.8423 80.2817 45.5975 83.4728 58.8503L84.1364 75.7768V77.7453L41.0654 77.2218L41.202 70.3979Z" fill="#E45858"/>
<path d="M48.5182 31.9536C48.5182 31.9536 31.7042 48.6842 29.6451 89.4284C29.6419 89.4284 20.8722 41.9245 48.5182 31.9536Z" fill="#4549B6"/>
<path d="M39.4229 19.5178C39.4229 19.5178 22.7 17.0644 28.3209 38.6439L29.4725 49.5333L36.0302 41.0395C36.0335 41.0395 28.913 22.3662 39.4229 19.5178Z" fill="#4549B6"/>
<path d="M85.1885 19.2881C88.6137 17.0659 101.687 19.4326 96.2904 39.4322L95.1389 50.3215L88.5812 41.8278C88.5779 41.8246 91.3168 14.3974 85.1885 19.2881Z" fill="#4549B6"/>
<path d="M39.6436 86.6699H83.2089C83.2089 86.6699 87.3303 87.1934 87.1969 93.7571L87.2001 101.763C87.2001 101.763 87.1969 105.7 76.0331 103.468L39.6436 104.152V86.6699Z" fill="#E45858"/>
<path d="M86.6336 98.821C86.6336 98.821 93.9102 83.0249 70.5841 86.5187L55.1786 85.9375L52.8398 87.3569C52.8398 87.3569 87.6713 85.976 86.6336 98.821Z" fill="#AE4848"/>
<path d="M83.4846 85.1011H41.666C39.145 85.1011 37.0957 87.1274 37.0957 89.6129V100.733C37.0957 103.219 39.145 105.245 41.666 105.245H83.4846C86.0023 105.245 88.0548 103.219 88.0548 100.733V89.6129C88.0548 87.1274 86.0023 85.1011 83.4846 85.1011ZM85.4395 100.733C85.4395 101.8 84.5645 102.667 83.4813 102.667H41.666C40.586 102.667 39.7077 101.803 39.7077 100.733V89.6129C39.7077 88.5467 40.586 87.6797 41.666 87.6797H83.4846C84.5645 87.6797 85.4428 88.5435 85.4428 89.6129V100.733H85.4395Z" fill="#2B2C34"/>
<path opacity="0.16" d="M86.3303 48.5429C87.9893 46.9051 86.6311 42.9088 83.2965 39.6169C79.962 36.325 75.9139 34.9841 74.2549 36.6219C72.5959 38.2597 73.9542 42.256 77.2887 45.5479C80.6232 48.8398 84.6713 50.1807 86.3303 48.5429Z" fill="#FFFFFE"/>
<path d="M106.837 62.1436H97.6641V61.6137C97.6641 58.3319 97.1696 55.1656 96.3011 52.1534C97.0005 48.0495 100.068 28.9233 97.3583 24.0647C95.7123 21.1104 91.2169 18.4065 86.0416 17.3115C84.2265 16.9229 79.4091 15.8985 75.5154 22.1637L71.7324 28.2072C71.0363 28.021 70.3434 27.8187 69.631 27.6742L67.855 20.6929C67.1003 18.0693 65.8057 17 63.3856 17C61.538 17 59.5537 17.4239 58.8706 20.5356L57.0946 27.4365C55.7934 27.6388 54.5183 27.9054 53.2692 28.2458L49.4634 22.1733C45.573 15.8985 40.7555 16.9229 38.8136 17.3404C33.7652 18.4097 29.2665 21.1104 27.6205 24.0679C24.8166 29.1096 28.2126 49.4849 28.7428 52.5292C27.9426 55.4289 27.4774 58.4667 27.4774 61.6137V62.1436H18.3044C17.5855 62.1436 17 62.7216 17 63.4313V91.3498C17 94.9111 19.9341 97.8108 23.5447 97.8108H27.4807V101.205C27.4807 106.513 31.8557 110.832 37.2327 110.832H87.912C93.289 110.832 97.6641 106.513 97.6641 101.205V97.8108H101.597C105.204 97.8108 108.145 94.9143 108.145 91.3498V63.4313C108.145 62.7184 107.559 62.1436 106.837 62.1436ZM77.4671 23.3486C80.5151 18.4322 83.8004 19.1387 85.6903 19.5465C89.9906 20.4553 94.0534 22.8123 95.3578 25.1533C96.9419 27.9985 95.9856 38.9103 94.6942 47.7123C92.4693 42.722 89.1026 38.3355 84.8999 34.9059L84.6104 26.1906C84.5226 24.4726 83.3971 23.567 82.727 23.2972C81.3706 22.777 80.0076 23.233 79.1716 24.4918C78.4528 25.5804 77.1874 28.249 76.4653 29.8128C75.6586 29.4692 74.8291 29.1738 73.9931 28.8912L77.4671 23.3486ZM82.5578 33.1718C81.273 32.2887 79.923 31.502 78.5243 30.7923C79.2952 29.1256 80.4825 26.6337 81.081 25.7281C81.4226 25.2176 81.6991 25.3235 81.878 25.391C81.8812 25.391 82.2911 25.6158 82.3269 26.2869L82.5578 33.1718ZM61.0956 21.0494C61.4566 19.4149 62.0421 19.2543 63.3888 19.2543C64.4623 19.2543 65.0933 19.3474 65.6496 21.2742L67.1816 27.3049C65.6691 27.1058 64.137 26.9709 62.5724 26.9709C61.5477 26.9709 60.5393 27.0383 59.5342 27.1218L61.0956 21.0494ZM29.6243 25.1533C30.9254 22.8123 34.9947 20.4585 39.4219 19.5208C41.1882 19.1483 44.4703 18.4451 47.5182 23.355L51.0183 28.9394C50.1823 29.2284 49.3528 29.5303 48.5461 29.8771C47.8305 28.3228 46.5358 25.5933 45.8072 24.4918C44.9745 23.233 43.6083 22.7738 42.2714 23.2908C42.112 23.3486 40.7002 23.9234 40.3717 26.213L40.0757 35.0568C35.8828 38.5249 32.5193 42.934 30.3302 47.9596C29.1982 40.2397 27.9068 28.2361 29.6243 25.1533ZM43.0846 25.4006C43.2765 25.33 43.5595 25.2176 43.8978 25.7249C44.5061 26.6466 45.7194 29.1899 46.4903 30.8565C45.0721 31.5822 43.7156 32.3947 42.4177 33.297L42.6422 26.4121C42.7625 25.6158 43.0976 25.4006 43.0846 25.4006ZM23.5447 95.229C21.3751 95.229 19.612 93.4885 19.612 91.3498V64.719H27.4807V95.229H23.5447ZM95.052 101.205C95.052 105.091 91.848 108.254 87.912 108.254H37.2294C33.2902 108.254 30.0894 105.091 30.0894 101.205V96.5199V63.4313V61.6137C30.0894 43.9327 44.6622 29.5463 62.5724 29.5463C80.4825 29.5463 95.052 43.9327 95.052 61.6137V63.4313V96.5199V101.205ZM105.533 91.3498C105.533 93.4885 103.77 95.229 101.6 95.229H97.6673V64.719H105.533V91.3498Z" fill="#2B2C34"/>
<path d="M40.9479 79.0158H84.1945C84.9134 79.0158 85.5022 78.4378 85.5022 77.7249V63.8973C85.5022 51.4152 75.2167 41.2612 62.5729 41.2612C49.9291 41.2612 39.6436 51.4152 39.6436 63.8973V77.7249C39.6436 78.4345 40.2291 79.0158 40.9479 79.0158ZM42.2556 63.8973C42.2556 52.8378 51.3701 43.8399 62.5729 43.8399C73.7757 43.8399 82.8902 52.8378 82.8902 63.8973V76.4339H42.2556V63.8973Z" fill="#2B2C34"/>
</svg>
