<svg width="128" height="128" viewBox="0 0 128 128" fill="none" xmlns="http://www.w3.org/2000/svg">
<path d="M96.0286 26.884C95.7919 26.8059 95.5729 26.682 95.3841 26.5193C95.1954 26.3566 95.0406 26.1582 94.9285 25.9356C94.8164 25.7131 94.7493 25.4706 94.731 25.222C94.7127 24.9735 94.7436 24.7238 94.8219 24.4872L96.5169 19.3592C96.653 18.9491 96.7067 18.5161 96.675 18.0852C96.6434 17.6542 96.527 17.2338 96.3325 16.8479C96.138 16.462 95.8693 16.1183 95.5417 15.8365C95.2141 15.5547 94.8342 15.3403 94.4236 15.2057L84.5802 11.953C83.7534 11.6831 82.8532 11.7515 82.0767 12.1433C81.3001 12.5352 80.7103 13.2185 80.4362 14.044L78.7434 19.1719C78.5862 19.6498 78.2457 20.0456 77.7966 20.2724C77.3476 20.4991 76.8268 20.5382 76.349 20.381C75.8711 20.2238 75.4753 19.8832 75.2485 19.4342C75.0218 18.9852 74.9827 18.4644 75.1399 17.9866L76.8326 12.8586C77.424 11.0765 78.698 9.6015 80.3752 8.75713C82.0524 7.91276 83.996 7.76786 85.7798 8.35421L95.6089 11.6021C96.4925 11.8934 97.31 12.3559 98.0147 12.9634C98.7193 13.5708 99.2974 14.3111 99.7157 15.1421C100.134 15.973 100.384 16.8783 100.453 17.8061C100.521 18.7339 100.406 19.6661 100.113 20.5493L98.4183 25.6773C98.2606 26.1536 97.9206 26.5481 97.4727 26.7742C97.0248 27.0004 96.5055 27.0399 96.0286 26.884Z" fill="#2C2C33"/>
<path d="M106.238 62.1348C106.511 62.1348 106.78 62.1937 107.028 62.3075C107.277 62.4213 107.497 62.5873 107.675 62.7941C107.853 63.0009 107.984 63.2438 108.06 63.506C108.136 63.7682 108.154 64.0436 108.113 64.3135C106.115 77.5897 107.596 67.7416 100.683 113.715C100.437 115.352 99.6122 116.846 98.3579 117.926C97.1036 119.006 95.5034 119.6 93.8483 119.599H62.5545C60.8994 119.6 59.2991 119.006 58.0448 117.926C56.7905 116.846 55.9654 115.352 55.7196 113.715C48.8065 67.7416 50.2882 77.5826 48.2897 64.3135C48.2491 64.0436 48.2672 63.7682 48.3428 63.506C48.4184 63.2438 48.5497 63.0009 48.7277 62.7941C48.9057 62.5873 49.1263 62.4213 49.3743 62.3075C49.6224 62.1937 49.892 62.1348 50.1649 62.1348H106.238Z" fill="#E45858"/>
<path d="M108.93 29.1522C109.792 29.4368 110.589 29.8884 111.277 30.4812C111.964 31.074 112.528 31.7965 112.936 32.6074C113.345 33.4182 113.589 34.3015 113.656 35.2068C113.722 36.1122 113.61 37.0218 113.325 37.8837L111.889 42.2364C111.81 42.4731 111.687 42.692 111.524 42.8808C111.361 43.0695 111.163 43.2244 110.94 43.3365C110.718 43.4485 110.475 43.5156 110.227 43.5339C109.978 43.5522 109.728 43.5213 109.492 43.4431L55.6591 25.6625C55.4224 25.5844 55.2035 25.4605 55.0147 25.2978C54.8259 25.1351 54.6711 24.9367 54.559 24.7141C54.447 24.4916 54.3799 24.2491 54.3616 24.0005C54.3433 23.752 54.3741 23.5023 54.4524 23.2657L55.8914 18.913C56.1755 18.0505 56.6268 17.2524 57.2194 16.5643C57.8119 15.8763 58.5343 15.3117 59.3451 14.9029C60.156 14.494 61.0394 14.249 61.945 14.1816C62.8506 14.1143 63.7605 14.226 64.6229 14.5105C93.4749 24.0456 83.0436 20.5938 108.93 29.1522Z" fill="#42434D"/>
<path d="M36.4387 31.9498L38.7075 37.0943C38.8523 37.4221 38.9103 37.7817 38.8759 38.1384C38.8414 38.4951 38.7156 38.8369 38.5107 39.1308L36.5738 41.9236C36.3407 42.2591 36.0143 42.5189 35.6351 42.671C35.2559 42.8231 34.8405 42.8608 34.4401 42.7794C30.7347 42.035 30.6351 41.9354 29.9642 42.1512L25.3862 43.621C25.1209 43.7057 24.8412 43.7361 24.5638 43.7104C24.2865 43.6847 24.0171 43.6036 23.7718 43.4717L20.1374 41.5158C19.8038 41.3385 19.5246 41.0739 19.3296 40.7503C19.1346 40.4267 19.0312 40.0563 19.0303 39.6785V37.0185C19.0298 36.5571 18.8769 36.1089 18.5951 35.7435C18.3134 35.3782 17.9188 35.1163 17.4727 34.9986L16.5576 34.7615C16.1111 34.6437 15.7162 34.3815 15.4344 34.0157C15.1527 33.6498 14.9999 33.201 15 32.7393V29.7142C14.9998 29.1864 15.1994 28.6781 15.5588 28.2915C15.9181 27.9049 16.4105 27.6687 16.9369 27.6303L21.759 27.2795C22.2854 27.2411 22.7778 27.0049 23.1371 26.6183C23.4965 26.2317 23.6961 25.7234 23.6959 25.1956C23.6959 24.6416 23.916 24.1104 24.3076 23.7187C24.6993 23.327 25.2306 23.1069 25.7845 23.1069H29.9618C30.2467 23.1067 30.5286 23.1649 30.7901 23.2778C31.0517 23.3907 31.2874 23.5559 31.4826 23.7634C31.6779 23.9709 31.8285 24.2161 31.9254 24.484C32.0222 24.7519 32.0632 25.0369 32.0457 25.3212L31.8655 28.2894C31.8355 28.7933 31.9887 29.291 32.2967 29.6909C32.6047 30.0909 33.0468 30.366 33.5416 30.4657L34.9356 30.7431C35.2646 30.8089 35.5729 30.9529 35.8345 31.1629C36.0961 31.373 36.3033 31.6429 36.4387 31.9498Z" fill="#464DEA"/>
<path d="M109.238 29.262C111.407 30.0941 110.186 33.3729 107.986 32.645L68.8903 19.7268C67.1495 19.1521 65.2518 19.2922 63.6144 20.1165C61.977 20.9408 60.734 22.3816 60.1588 24.1222L59.8245 25.1321C59.7502 25.3573 59.6323 25.5656 59.4774 25.7452C59.3226 25.9248 59.1339 26.072 58.922 26.1786C58.7102 26.2852 58.4795 26.349 58.243 26.3663C58.0065 26.3836 57.7689 26.3541 57.5439 26.2796L55.6591 25.6561C55.4224 25.578 55.2035 25.4541 55.0147 25.2914C54.8259 25.1287 54.6711 24.9303 54.559 24.7077C54.447 24.4851 54.3799 24.2426 54.3616 23.9941C54.3433 23.7456 54.3741 23.4959 54.4524 23.2592L55.8914 18.9066C56.4666 17.166 57.7096 15.7251 59.347 14.9008C60.9844 14.0766 62.8822 13.9364 64.6229 14.5112C110.935 29.8167 108.92 29.1411 109.238 29.262Z" fill="#4D4E59"/>
<path d="M106.245 62.1348C106.518 62.1348 106.788 62.1937 107.036 62.3075C107.284 62.4213 107.504 62.5873 107.682 62.7941C107.86 63.0009 107.992 63.2438 108.067 63.506C108.143 63.7682 108.161 64.0436 108.12 64.3135L107.02 71.6178H59.6432C59.3703 71.6178 59.1006 71.6767 58.8526 71.7905C58.6045 71.9043 58.384 72.0703 58.2059 72.2771C58.0279 72.4839 57.8966 72.7268 57.821 72.989C57.7454 73.2512 57.7273 73.5266 57.7679 73.7965C58.3416 77.6015 61.324 97.3831 63.6023 112.582C64.3633 117.651 56.7793 119.075 55.7789 114.049C55.703 113.677 56.042 115.82 48.2897 64.3135C48.2491 64.0436 48.2672 63.7682 48.3428 63.506C48.4184 63.2438 48.5497 63.0009 48.7277 62.7941C48.9057 62.5873 49.1263 62.4213 49.3743 62.3075C49.6224 62.1937 49.892 62.1348 50.1649 62.1348H106.245Z" fill="#E86F6F"/>
<path d="M106.24 62.1348C106.513 62.1348 106.783 62.1937 107.031 62.3075C107.279 62.4213 107.499 62.5873 107.677 62.7941C107.855 63.0009 107.986 63.2438 108.062 63.506C108.138 63.7682 108.156 64.0436 108.115 64.3135L106.572 74.567H49.8232L48.2799 64.3135C48.2393 64.0436 48.2574 63.7682 48.333 63.506C48.4086 63.2438 48.5399 63.0009 48.7179 62.7941C48.8959 62.5873 49.1165 62.4213 49.3645 62.3075C49.6126 62.1937 49.8823 62.1348 50.1551 62.1348H106.24Z" fill="#42434D"/>
<path d="M99.2344 62.1437C105.344 62.414 105.033 71.6267 98.9167 71.6267H59.6429C59.37 71.6268 59.1003 71.6857 58.8523 71.7995C58.6042 71.9133 58.3837 72.0793 58.2057 72.2861C58.0276 72.4929 57.8963 72.7357 57.8207 72.9979C57.7452 73.2601 57.727 73.5356 57.7676 73.8054L57.8838 74.5759H49.8232L48.2799 64.3225C48.2393 64.0526 48.2574 63.7772 48.333 63.5149C48.4086 63.2527 48.5399 63.0099 48.7179 62.8031C48.8959 62.5963 49.1165 62.4303 49.3645 62.3165C49.6126 62.2027 49.8823 62.1438 50.1552 62.1437C50.4728 62.1343 98.9428 62.1295 99.2344 62.1437Z" fill="#4D4E59"/>
<path d="M32.0457 25.3212L31.9224 27.3198C31.8442 28.6023 30.8082 28.5051 30.8082 29.9276C30.8083 30.4554 30.6087 30.9637 30.2494 31.3503C29.89 31.7369 29.3977 31.9731 28.8713 32.0115L24.0491 32.3623C23.5211 32.4008 23.0274 32.6384 22.6678 33.027C22.3082 33.4156 22.1096 33.9263 22.1122 34.4557V37.4808C22.1127 37.9421 22.2657 38.3904 22.5474 38.7557C22.8291 39.1211 23.2237 39.383 23.6698 39.5007L24.5849 39.7377C25.0314 39.8555 25.4263 40.1178 25.7081 40.4836C25.9899 40.8494 26.1426 41.2982 26.1425 41.76C26.1423 42.0646 26.0647 42.3643 25.9169 42.6307C25.7691 42.8971 25.556 43.1216 25.2977 43.283C25.0393 43.4444 24.7441 43.5375 24.4399 43.5535C24.1356 43.5695 23.8323 43.5079 23.5584 43.3745C22.878 43.0426 21.8752 42.457 20.1279 41.5158C19.7961 41.3372 19.5188 41.0721 19.3255 40.7486C19.1323 40.4251 19.0302 40.0553 19.0303 39.6785V37.0185C19.0298 36.5571 18.8769 36.1089 18.5951 35.7435C18.3134 35.3782 17.9188 35.1163 17.4727 34.9986L16.5576 34.7615C16.1111 34.6437 15.7162 34.3815 15.4344 34.0157C15.1527 33.6498 14.9999 33.201 15 32.7393V29.7142C14.9998 29.1864 15.1994 28.6781 15.5588 28.2915C15.9181 27.9049 16.4105 27.6687 16.9369 27.6303L21.759 27.2795C22.2854 27.2411 22.7778 27.0049 23.1371 26.6183C23.4965 26.2317 23.6961 25.7234 23.6959 25.1956C23.6956 24.9212 23.7494 24.6495 23.8543 24.3959C23.9591 24.1424 24.1129 23.912 24.307 23.718C24.501 23.524 24.7313 23.3701 24.9849 23.2653C25.2384 23.1604 25.5102 23.1066 25.7845 23.1069H29.9618C30.2467 23.1067 30.5286 23.1649 30.7901 23.2778C31.0517 23.3907 31.2874 23.5559 31.4826 23.7634C31.6779 23.9709 31.8285 24.2161 31.9254 24.484C32.0222 24.7519 32.0632 25.0369 32.0457 25.3212Z" fill="#8085F8"/>
</svg>
